<?xml version="1.0" encoding="UTF-8" standalone="no"?>
<svg
   xmlns:dc="http://purl.org/dc/elements/1.1/"
   xmlns:cc="http://creativecommons.org/ns#"
   xmlns:rdf="http://www.w3.org/1999/02/22-rdf-syntax-ns#"
   xmlns:svg="http://www.w3.org/2000/svg"
   xmlns="http://www.w3.org/2000/svg"
   xmlns:sodipodi="http://sodipodi.sourceforge.net/DTD/sodipodi-0.dtd"
   xmlns:inkscape="http://www.inkscape.org/namespaces/inkscape"
   width="1000"
   height="1000"
   viewBox="0 0 264.58333 264.58334"
   version="1.1"
   id="svg8"
   inkscape:version="1.0.2 (e86c870879, 2021-01-15)"
   sodipodi:docname="logo megasimplificado.svg"
   inkscape:export-filename="/media/yeetus/YeetusDrivus/ingeniqs/img/logos/logo megasimplificado sketch 4 mini.png"
   inkscape:export-xdpi="2.3999999"
   inkscape:export-ydpi="2.3999999">
  <defs
     id="defs2">
    <clipPath
       id="clip_1">
      <path
         d="M 19.84379,39.687622 C 8.8843557,39.687609 1.0865198e-5,30.803242 2.426813e-5,19.843808 3.7670933e-5,8.88448 8.8844042,2.9386031e-5 19.843838,4.2788964e-5 30.803166,5.6191767e-5 39.687617,8.8845286 39.687604,19.843857 39.68759,30.803291 30.803118,39.687636 19.84379,39.687622 Z"
         id="use13"
         style="stroke-width:0.264584" />
    </clipPath>
    <clipPath
       id="clip_1-9">
      <path
         d="M 19.84379,39.687622 C 8.8843557,39.687609 1.0865198e-5,30.803242 2.426813e-5,19.843808 3.7670933e-5,8.88448 8.8844042,2.9386031e-5 19.843838,4.2788964e-5 30.803166,5.6191767e-5 39.687617,8.8845286 39.687604,19.843857 39.68759,30.803291 30.803118,39.687636 19.84379,39.687622 Z"
         id="use13-8"
         style="stroke-width:0.264584" />
    </clipPath>
    <clipPath
       id="clip_1-4">
      <path
         d="M 19.84379,39.687622 C 8.8843557,39.687609 1.0865198e-5,30.803242 2.426813e-5,19.843808 3.7670933e-5,8.88448 8.8844042,2.9386031e-5 19.843838,4.2788964e-5 30.803166,5.6191767e-5 39.687617,8.8845286 39.687604,19.843857 39.68759,30.803291 30.803118,39.687636 19.84379,39.687622 Z"
         id="use13-81"
         style="stroke-width:0.264584" />
    </clipPath>
  </defs>
  <sodipodi:namedview
     id="base"
     pagecolor="#2c2c2c"
     bordercolor="#666666"
     borderopacity="1.0"
     inkscape:pageopacity="0"
     inkscape:pageshadow="2"
     inkscape:zoom="0.50204581"
     inkscape:cx="321.05263"
     inkscape:cy="517.90433"
     inkscape:document-units="mm"
     inkscape:current-layer="g1091"
     inkscape:document-rotation="0"
     showgrid="false"
     units="px"
     inkscape:object-paths="false"
     inkscape:snap-intersection-paths="false"
     inkscape:object-nodes="false"
     inkscape:snap-smooth-nodes="false"
     inkscape:snap-midpoints="false"
     inkscape:window-width="1600"
     inkscape:window-height="836"
     inkscape:window-x="0"
     inkscape:window-y="27"
     inkscape:window-maximized="1" />
  <metadata
     id="metadata5">
    <rdf:RDF>
      <cc:Work
         rdf:about="">
        <dc:format>image/svg+xml</dc:format>
        <dc:type
           rdf:resource="http://purl.org/dc/dcmitype/StillImage" />
        <dc:title />
      </cc:Work>
    </rdf:RDF>
  </metadata>
  <g
     inkscape:label="Layer 1"
     inkscape:groupmode="layer"
     id="layer1"
     style="display:none">
    <path
       id="rect833"
       style="fill:#ffffff;fill-opacity:1;stroke:none;stroke-width:0.718685;stroke-linecap:round;stroke-linejoin:round;stop-color:#000000"
       d="M 122.20117,0 C 54.501339,0 0,54.501339 0,122.20117 V 777.79883 C 0,845.49866 54.501339,900 122.20117,900 H 666.88672 L 900,666.88672 V 122.20117 C 900,54.501339 845.49866,0 777.79883,0 Z"
       transform="scale(0.26458333)"
       sodipodi:nodetypes="sssccccss" />
    <g
       id="g1448"
       transform="translate(-55.998566,-0.00554557)" />
    <g
       id="g1465" />
    <path
       id="path1101"
       style="fill:#0b132b;fill-opacity:1;stroke:none;stroke-width:0.710498;stroke-linecap:round;stroke-linejoin:round;stop-color:#000000"
       d="M 900,666.88672 V 900 H 666.88672 A 175,175 0 0 0 825,1000 175,175 0 0 0 1000,825 175,175 0 0 0 900,666.88672 Z"
       transform="scale(0.26458333)" />
  </g>
  <g
     inkscape:groupmode="layer"
     id="layer3"
     inkscape:label="Layer 2"
     style="display:inline">
    <path
       id="rect849"
       style="fill:#ffffff;fill-opacity:1;stroke-width:0.608999;stroke-linecap:round;stroke-linejoin:round;stop-color:#000000"
       d="M 89.167969,0 C 39.769275,0 0,39.769268 0,89.167969 V 760.83203 C 0,810.23072 39.769275,850 89.167969,850 313.05664,850 536.94531,850 760.83398,850 804.68747,850.35191 850.98656,806.03146 850,760.83203 850,698.88802 850,636.94401 850,575 767.15729,575 700,507.84271 700,425 700,342.15729 767.15729,275 850,275 V 89.167969 C 850,39.769268 810.23267,0 760.83398,0 Z M 850,275 v 300 c 82.84271,0 150,-67.15729 150,-150 0,-82.84271 -67.15729,-150 -150,-150 z"
       transform="scale(0.26458333)"
       sodipodi:nodetypes="sssccccscsssccsc" />
  </g>
  <g
     inkscape:groupmode="layer"
     id="layer2"
     inkscape:label="text">
    <g
       id="g1099"
       style="fill:#3f7cac;fill-opacity:1"
       transform="translate(-29.991603,-2.91)">
      <g
         id="g1091"
         transform="translate(1.5258789e-5,20.713109)"
         style="fill:#1c2541;fill-opacity:1">
        <circle
           style="fill:#3f7cac;fill-opacity:1;stroke:none;stroke-width:0.430917;stroke-linecap:round;stroke-linejoin:round;stop-color:#000000"
           id="path971"
           cx="80.720634"
           cy="158.46925"
           r="35.379131" />
        <rect
           style="fill:#1c2541;fill-opacity:1;stroke:none;stroke-width:0.249942;stroke-linecap:round;stroke-linejoin:round;stop-color:#000000"
           id="rect1126"
           width="74.507759"
           height="205.20703"
           x="126.64654"
           y="-8.8589649"
           ry="37.25388" />
      </g>
    </g>
  </g>
</svg>
